<svg width="350" height="285" viewBox="0 0 350 285" fill="none" xmlns="http://www.w3.org/2000/svg">
<path d="M307.644 85.6237C308.205 85.2149 308.863 84.9541 309.554 84.8908C312.898 84.5847 314.211 84.9521 315 87.5L315.4 89.1017C315.768 90.5716 315.273 92.1229 314.123 93.1089L312.5 94.5L291.634 110.5L288.908 112.358C287.473 113.337 285.57 113.277 284.199 112.211L283.175 111.414C282.417 110.824 281.896 109.982 281.708 109.041L281.471 107.855C281.181 106.406 281.714 104.914 282.858 103.977L286 101.402L307.644 85.6237Z" fill="#8B79EE"/>
<path d="M78 99.0001L90.5 103L94 105.5L110 140.5L135.5 171C138.7 173.8 143.7 174.8 150.5 174C155.567 173.067 159.4 170.9 162 167.5C165.667 163.833 167.333 158.167 167 150.5L162 129L193 139L190 151.5L162 230L46 188.5L78 99.0001Z" fill="#8B79EE"/>
<path d="M345 121.5C348.2 121.033 348.533 120.367 349 122.5L349.717 127.52C349.895 128.767 349.476 130.024 348.586 130.914L348.417 131.083C347.821 131.679 347.052 132.072 346.219 132.204L341.232 133L333.5 134L323.634 134.5L294.508 137.307C293.245 137.428 291.999 136.944 291.151 136.001L289.91 134.622C288.767 133.353 288.557 131.497 289.387 130.004L289.899 129.082C290.291 128.377 290.886 127.807 291.607 127.447L293.811 126.345C294.266 126.117 294.761 125.978 295.268 125.936L318.5 124L320 123.866L335.077 123L345 121.5Z" fill="#8B79EE"/>
<path d="M290.633 157.332C291.185 157.069 291.814 157.052 292.417 157.153L297.19 157.948C297.397 157.983 297.6 158.033 297.798 158.099L315.5 164L323.559 166.969C324.47 167.305 325.179 168.036 325.486 168.957C325.809 169.926 325.649 170.992 325.054 171.824L324.181 173.046C323.736 173.669 323.122 174.151 322.412 174.435L319.215 175.714C318.743 175.903 318.239 176 317.73 176H315.189C314.733 176 314.281 175.922 313.851 175.77L293.366 168.5L290.118 167.289C288.804 166.8 287.803 165.659 287.697 164.26C287.429 160.704 288.407 158.394 290.633 157.332Z" fill="#8B79EE"/>
<path d="M107.5 45C109.7 44.2667 110.533 44.7667 110 46.5L147 123.5L151 145.5L153 150.5V156.5C152 159.833 148.833 161 143.5 160L123 135.5L87 60.5L86 55L107.5 45Z" fill="#14153C"/>
<path d="M61.5 53.0001C61.5 53.0001 62.6336 52.4435 65 52.5001C67.3664 52.5566 68.5 53.0001 68.5 53.0001L69 55.5001L84 85.5L82.5 86C82.5 86 76 82.5001 72.5 83.0001C69 83.5 68 84.5 67 87.5C66 90.5001 30 193.5 30 193.5C29.5 195.5 30.5 196 32 197.5C33.5 199 33 198.5 35 200L166.5 246C170.787 246.442 171.023 244.857 172 242.5L204 153.5L208 139C208.5 137 208.5 137 209 132.5C209.03 130.3 208.139 129.608 205.5 129L166.5 116L158.5 113L156 110.5L141 78.5001L142.5 79.0001L253.5 118L262 125.5C264.8 128.7 265.8 133.7 265 140.5L219 271.5L210.5 282L202.5 285H195.5L14.5 221C10.0333 219.533 6.53333 217.033 4 213.5L0 204.5V198.5L46 67.5001C47.7333 62.5667 52 58.0001 54.5 56.0001C57 54 61.5 53.0001 61.5 53.0001ZM225.5 138L223.5 139L220 144.5L212 167.5L213 174.5C214 177.167 216.833 178 221.5 177L226 172.5L235 146.5V142.5L230.5 138H225.5ZM207.5 189L205.5 190C203.167 191.333 202.333 194.167 203 198.5L208.5 203L213.5 202L217 197.5L216 192.5C215.2 189.367 212.367 188.2 207.5 189ZM199.5 214L197.5 215L194 218.5L184 246.5L186 252.5L190.5 255L194.5 254L199 248.5L208 222.5L207 217.5C206.133 214.7 203.633 213.533 199.5 214Z" fill="#14153C"/>
<rect x="196.906" y="210.6" width="13.9952" height="44.245" rx="6.99761" transform="rotate(19.5137 196.906 210.6)" fill="white"/>
<rect x="223.779" y="133" width="15.5166" height="44.245" rx="7.75829" transform="rotate(19.5137 223.779 133)" fill="white"/>
<circle cx="210" cy="196" r="8" fill="white"/>
<path d="M69.2442 22.2965C66.1551 16.1605 68.6252 8.68218 74.7612 5.59316V5.59316C80.8971 2.50415 88.3755 4.97419 91.4645 11.1102L103.345 34.7101L81.125 45.8964L69.2442 22.2965Z" fill="#8B79EE"/>
</svg>
